<svg width="243" height="135" viewBox="0 0 243 135" fill="none" xmlns="http://www.w3.org/2000/svg">
<path d="M21 16C21 23 12 29 12 29C12 29 3 23 3 16C3 13.6131 3.94821 11.3239 5.63604 9.63604C7.32387 7.94821 9.61305 7 12 7C14.3869 7 16.6761 7.94821 18.364 9.63604C20.0518 11.3239 21 13.6131 21 16Z" stroke="white" stroke-width="2" stroke-linecap="round" stroke-linejoin="round"/>
<path d="M12 19C13.6569 19 15 17.6569 15 16C15 14.3431 13.6569 13 12 13C10.3431 13 9 14.3431 9 16C9 17.6569 10.3431 19 12 19Z" stroke="white" stroke-width="2" stroke-linecap="round" stroke-linejoin="round"/>
<path d="M22 77.9201V80.9201C22.0011 81.1986 21.9441 81.4743 21.8325 81.7294C21.7209 81.9846 21.5573 82.2137 21.3521 82.402C21.1468 82.5902 20.9046 82.7336 20.6407 82.8228C20.3769 82.912 20.0974 82.9452 19.82 82.9201C16.7428 82.5857 13.787 81.5342 11.19 79.8501C8.77382 78.3148 6.72533 76.2663 5.18999 73.8501C3.49997 71.2413 2.44824 68.2711 2.11999 65.1801C2.095 64.9036 2.12787 64.6249 2.21649 64.3617C2.30512 64.0986 2.44756 63.8568 2.63476 63.6517C2.82196 63.4466 3.0498 63.2828 3.30379 63.1706C3.55777 63.0584 3.83233 63.0004 4.10999 63.0001H7.10999C7.5953 62.9953 8.06579 63.1672 8.43376 63.4836C8.80173 63.8001 9.04207 64.2395 9.10999 64.7201C9.23662 65.6802 9.47144 66.6228 9.80999 67.5301C9.94454 67.888 9.97366 68.277 9.8939 68.651C9.81415 69.0249 9.62886 69.3682 9.35999 69.6401L8.08999 70.9101C9.51355 73.4136 11.5864 75.4865 14.09 76.9101L15.36 75.6401C15.6319 75.3712 15.9751 75.1859 16.3491 75.1062C16.7231 75.0264 17.1121 75.0556 17.47 75.1901C18.3773 75.5286 19.3199 75.7635 20.28 75.8901C20.7658 75.9586 21.2094 76.2033 21.5265 76.5776C21.8437 76.9519 22.0122 77.4297 22 77.9201Z" stroke="white" stroke-width="2" stroke-linecap="round" stroke-linejoin="round"/>
<path d="M4 115H20C21.1 115 22 115.9 22 117V129C22 130.1 21.1 131 20 131H4C2.9 131 2 130.1 2 129V117C2 115.9 2.9 115 4 115Z" stroke="white" stroke-width="2" stroke-linecap="round" stroke-linejoin="round"/>
<path d="M22 117L12 124L2 117" stroke="white" stroke-width="2" stroke-linecap="round" stroke-linejoin="round"/>
<path d="M59.932 12.46V14H51.574V12.782L57.342 5.74H51.672V4.2H59.75V5.418L53.982 12.46H59.932ZM61.5992 4.2H63.4192V14H61.5992V4.2ZM72.9019 6.524L69.4019 14.602C69.0752 15.414 68.6786 15.9833 68.2119 16.31C67.7452 16.646 67.1806 16.814 66.5179 16.814C66.1446 16.814 65.7759 16.7533 65.4119 16.632C65.0479 16.5107 64.7492 16.3427 64.5159 16.128L65.2159 14.84C65.3839 14.9987 65.5799 15.1247 65.8039 15.218C66.0372 15.3113 66.2706 15.358 66.5039 15.358C66.8119 15.358 67.0639 15.2787 67.2599 15.12C67.4652 14.9613 67.6519 14.6953 67.8199 14.322L67.9459 14.028L64.6839 6.524H66.5039L68.8559 12.054L71.2219 6.524H72.9019ZM77.1506 14.098C76.3946 14.098 75.7132 13.9347 75.1066 13.608C74.4999 13.2813 74.0239 12.8287 73.6786 12.25C73.3426 11.662 73.1746 10.9993 73.1746 10.262C73.1746 9.52467 73.3426 8.86667 73.6786 8.288C74.0239 7.70933 74.4999 7.25667 75.1066 6.93C75.7132 6.60333 76.3946 6.44 77.1506 6.44C77.9159 6.44 78.6019 6.60333 79.2086 6.93C79.8152 7.25667 80.2866 7.70933 80.6226 8.288C80.9679 8.86667 81.1406 9.52467 81.1406 10.262C81.1406 10.9993 80.9679 11.662 80.6226 12.25C80.2866 12.8287 79.8152 13.2813 79.2086 13.608C78.6019 13.9347 77.9159 14.098 77.1506 14.098ZM77.1506 12.6C77.7946 12.6 78.3266 12.3853 78.7466 11.956C79.1666 11.5267 79.3766 10.962 79.3766 10.262C79.3766 9.562 79.1666 8.99733 78.7466 8.568C78.3266 8.13867 77.7946 7.924 77.1506 7.924C76.5066 7.924 75.9746 8.13867 75.5546 8.568C75.1439 8.99733 74.9386 9.562 74.9386 10.262C74.9386 10.962 75.1439 11.5267 75.5546 11.956C75.9746 12.3853 76.5066 12.6 77.1506 12.6ZM82.814 3.612H84.564V14H82.814V3.612ZM86.8609 6.524H88.6109V14H86.8609V6.524ZM87.7429 5.292C87.4256 5.292 87.1596 5.194 86.9449 4.998C86.7302 4.79267 86.6229 4.54067 86.6229 4.242C86.6229 3.94333 86.7302 3.696 86.9449 3.5C87.1596 3.29467 87.4256 3.192 87.7429 3.192C88.0602 3.192 88.3262 3.29 88.5409 3.486C88.7556 3.67267 88.8629 3.91067 88.8629 4.2C88.8629 4.508 88.7556 4.76933 88.5409 4.984C88.3356 5.18933 88.0696 5.292 87.7429 5.292ZM90.9078 3.612H92.6578V14H90.9078V3.612ZM97.8106 6.44C98.912 6.44 99.752 6.706 100.331 7.238C100.919 7.76067 101.213 8.554 101.213 9.618V14H99.5606V13.09C99.346 13.4167 99.038 13.6687 98.6366 13.846C98.2446 14.014 97.7686 14.098 97.2086 14.098C96.6486 14.098 96.1586 14.0047 95.7386 13.818C95.3186 13.622 94.992 13.356 94.7586 13.02C94.5346 12.6747 94.4226 12.2873 94.4226 11.858C94.4226 11.186 94.67 10.6493 95.1646 10.248C95.6686 9.83733 96.4573 9.632 97.5306 9.632H99.4626V9.52C99.4626 8.99733 99.304 8.596 98.9866 8.316C98.6786 8.036 98.2166 7.896 97.6006 7.896C97.1806 7.896 96.7653 7.96133 96.3546 8.092C95.9533 8.22267 95.6126 8.40467 95.3326 8.638L94.6466 7.364C95.0386 7.06533 95.51 6.83667 96.0606 6.678C96.6113 6.51933 97.1946 6.44 97.8106 6.44ZM97.5726 12.824C98.0113 12.824 98.3986 12.726 98.7346 12.53C99.08 12.3247 99.3226 12.0353 99.4626 11.662V10.794H97.6566C96.6486 10.794 96.1446 11.1253 96.1446 11.788C96.1446 12.1053 96.2706 12.3573 96.5226 12.544C96.7746 12.7307 97.1246 12.824 97.5726 12.824ZM105.125 7.616C105.629 6.832 106.515 6.44 107.785 6.44V8.106C107.635 8.078 107.5 8.064 107.379 8.064C106.697 8.064 106.165 8.26467 105.783 8.666C105.4 9.058 105.209 9.62733 105.209 10.374V14H103.459V6.524H105.125V7.616ZM115.517 14.098C114.91 14.098 114.317 14.0187 113.739 13.86C113.16 13.7013 112.698 13.5007 112.353 13.258L113.025 11.928C113.361 12.152 113.762 12.334 114.229 12.474C114.705 12.6047 115.171 12.67 115.629 12.67C116.674 12.67 117.197 12.3947 117.197 11.844C117.197 11.5827 117.061 11.4007 116.791 11.298C116.529 11.1953 116.105 11.0973 115.517 11.004C114.901 10.9107 114.397 10.8033 114.005 10.682C113.622 10.5607 113.286 10.3507 112.997 10.052C112.717 9.744 112.577 9.31933 112.577 8.778C112.577 8.06867 112.871 7.504 113.459 7.084C114.056 6.65467 114.859 6.44 115.867 6.44C116.38 6.44 116.893 6.50067 117.407 6.622C117.92 6.734 118.34 6.888 118.667 7.084L117.995 8.414C117.36 8.04067 116.646 7.854 115.853 7.854C115.339 7.854 114.947 7.93333 114.677 8.092C114.415 8.24133 114.285 8.442 114.285 8.694C114.285 8.974 114.425 9.17467 114.705 9.296C114.994 9.408 115.437 9.51533 116.035 9.618C116.632 9.71133 117.122 9.81867 117.505 9.94C117.887 10.0613 118.214 10.2667 118.485 10.556C118.765 10.8453 118.905 11.256 118.905 11.788C118.905 12.488 118.601 13.048 117.995 13.468C117.388 13.888 116.562 14.098 115.517 14.098ZM124.906 13.594C124.7 13.762 124.448 13.888 124.15 13.972C123.86 14.056 123.552 14.098 123.226 14.098C122.404 14.098 121.77 13.8833 121.322 13.454C120.874 13.0247 120.65 12.3993 120.65 11.578V7.98H119.418V6.58H120.65V4.872H122.4V6.58H124.402V7.98H122.4V11.536C122.4 11.9 122.488 12.18 122.666 12.376C122.843 12.5627 123.1 12.656 123.436 12.656C123.828 12.656 124.154 12.5533 124.416 12.348L124.906 13.594ZM127.056 11.774C127.383 11.774 127.653 11.8813 127.868 12.096C128.083 12.3107 128.19 12.5907 128.19 12.936C128.19 13.0853 128.167 13.244 128.12 13.412C128.083 13.5707 127.999 13.8133 127.868 14.14L127.154 16.114H126.02L126.58 13.972C126.375 13.888 126.211 13.7573 126.09 13.58C125.978 13.3933 125.922 13.1787 125.922 12.936C125.922 12.5907 126.029 12.3107 126.244 12.096C126.459 11.8813 126.729 11.774 127.056 11.774ZM142.939 14L142.925 7.504L139.705 12.88H138.893L135.673 7.588V14H133.937V4.2H135.435L139.327 10.696L143.149 4.2H144.647L144.661 14H142.939ZM147.14 6.524H148.89V14H147.14V6.524ZM148.022 5.292C147.705 5.292 147.439 5.194 147.224 4.998C147.01 4.79267 146.902 4.54067 146.902 4.242C146.902 3.94333 147.01 3.696 147.224 3.5C147.439 3.29467 147.705 3.192 148.022 3.192C148.34 3.192 148.606 3.29 148.82 3.486C149.035 3.67267 149.142 3.91067 149.142 4.2C149.142 4.508 149.035 4.76933 148.82 4.984C148.615 5.18933 148.349 5.292 148.022 5.292ZM152.853 7.616C153.357 6.832 154.244 6.44 155.513 6.44V8.106C155.364 8.078 155.228 8.064 155.107 8.064C154.426 8.064 153.894 8.26467 153.511 8.666C153.128 9.058 152.937 9.62733 152.937 10.374V14H151.187V6.524H152.853V7.616ZM162.904 12.6V14H156.45V12.894L160.552 7.924H156.534V6.524H162.792V7.63L158.676 12.6H162.904ZM167.768 14.098C167.012 14.098 166.33 13.9347 165.724 13.608C165.117 13.2813 164.641 12.8287 164.296 12.25C163.96 11.662 163.792 10.9993 163.792 10.262C163.792 9.52467 163.96 8.86667 164.296 8.288C164.641 7.70933 165.117 7.25667 165.724 6.93C166.33 6.60333 167.012 6.44 167.768 6.44C168.533 6.44 169.219 6.60333 169.826 6.93C170.432 7.25667 170.904 7.70933 171.24 8.288C171.585 8.86667 171.758 9.52467 171.758 10.262C171.758 10.9993 171.585 11.662 171.24 12.25C170.904 12.8287 170.432 13.2813 169.826 13.608C169.219 13.9347 168.533 14.098 167.768 14.098ZM167.768 12.6C168.412 12.6 168.944 12.3853 169.364 11.956C169.784 11.5267 169.994 10.962 169.994 10.262C169.994 9.562 169.784 8.99733 169.364 8.568C168.944 8.13867 168.412 7.924 167.768 7.924C167.124 7.924 166.592 8.13867 166.172 8.568C165.761 8.99733 165.556 9.562 165.556 10.262C165.556 10.962 165.761 11.5267 166.172 11.956C166.592 12.3853 167.124 12.6 167.768 12.6ZM181.682 14.14C180.329 14.14 179.274 13.762 178.518 13.006C177.762 12.2407 177.384 11.1487 177.384 9.73V4.2H179.204V9.66C179.204 11.5827 180.035 12.544 181.696 12.544C183.348 12.544 184.174 11.5827 184.174 9.66V4.2H185.966V9.73C185.966 11.1487 185.588 12.2407 184.832 13.006C184.086 13.762 183.036 14.14 181.682 14.14ZM188.347 3.612H190.097V14H188.347V3.612ZM199.632 6.524V14H197.966V13.048C197.686 13.384 197.336 13.6453 196.916 13.832C196.496 14.0093 196.043 14.098 195.558 14.098C194.559 14.098 193.771 13.8227 193.192 13.272C192.623 12.712 192.338 11.886 192.338 10.794V6.524H194.088V10.556C194.088 11.228 194.237 11.732 194.536 12.068C194.844 12.3947 195.278 12.558 195.838 12.558C196.463 12.558 196.958 12.3667 197.322 11.984C197.695 11.592 197.882 11.032 197.882 10.304V6.524H199.632ZM209.343 6.524V12.866C209.343 15.498 207.999 16.814 205.311 16.814C204.593 16.814 203.911 16.7207 203.267 16.534C202.623 16.3567 202.091 16.0953 201.671 15.75L202.455 14.434C202.782 14.7047 203.193 14.9193 203.687 15.078C204.191 15.246 204.7 15.33 205.213 15.33C206.035 15.33 206.637 15.1433 207.019 14.77C207.402 14.3967 207.593 13.8273 207.593 13.062V12.67C207.295 12.9967 206.931 13.244 206.501 13.412C206.072 13.58 205.601 13.664 205.087 13.664C204.378 13.664 203.734 13.5147 203.155 13.216C202.586 12.908 202.133 12.4787 201.797 11.928C201.471 11.3773 201.307 10.7473 201.307 10.038C201.307 9.32867 201.471 8.70333 201.797 8.162C202.133 7.61133 202.586 7.18667 203.155 6.888C203.734 6.58933 204.378 6.44 205.087 6.44C205.629 6.44 206.119 6.52867 206.557 6.706C207.005 6.88333 207.379 7.154 207.677 7.518V6.524H209.343ZM205.353 12.18C206.016 12.18 206.557 11.984 206.977 11.592C207.407 11.1907 207.621 10.6727 207.621 10.038C207.621 9.41267 207.407 8.904 206.977 8.512C206.557 8.12 206.016 7.924 205.353 7.924C204.681 7.924 204.131 8.12 203.701 8.512C203.281 8.904 203.071 9.41267 203.071 10.038C203.071 10.6727 203.281 11.1907 203.701 11.592C204.131 11.984 204.681 12.18 205.353 12.18ZM215.788 6.44C216.516 6.44 217.165 6.59867 217.734 6.916C218.313 7.23333 218.765 7.68133 219.092 8.26C219.419 8.83867 219.582 9.506 219.582 10.262C219.582 11.018 219.419 11.69 219.092 12.278C218.765 12.8567 218.313 13.3047 217.734 13.622C217.165 13.9393 216.516 14.098 215.788 14.098C215.275 14.098 214.803 14.0093 214.374 13.832C213.954 13.6547 213.599 13.3887 213.31 13.034V14H211.644V3.612H213.394V7.434C213.693 7.10733 214.043 6.86 214.444 6.692C214.855 6.524 215.303 6.44 215.788 6.44ZM215.592 12.6C216.236 12.6 216.763 12.3853 217.174 11.956C217.594 11.5267 217.804 10.962 217.804 10.262C217.804 9.562 217.594 8.99733 217.174 8.568C216.763 8.13867 216.236 7.924 215.592 7.924C215.172 7.924 214.794 8.022 214.458 8.218C214.122 8.40467 213.856 8.67533 213.66 9.03C213.464 9.38467 213.366 9.79533 213.366 10.262C213.366 10.7287 213.464 11.1393 213.66 11.494C213.856 11.8487 214.122 12.124 214.458 12.32C214.794 12.5067 215.172 12.6 215.592 12.6ZM228.27 10.304C228.27 10.4253 228.26 10.598 228.242 10.822H222.376C222.478 11.3727 222.744 11.8113 223.174 12.138C223.612 12.4553 224.154 12.614 224.798 12.614C225.619 12.614 226.296 12.3433 226.828 11.802L227.766 12.88C227.43 13.2813 227.005 13.5847 226.492 13.79C225.978 13.9953 225.4 14.098 224.756 14.098C223.934 14.098 223.211 13.9347 222.586 13.608C221.96 13.2813 221.475 12.8287 221.13 12.25C220.794 11.662 220.626 10.9993 220.626 10.262C220.626 9.534 220.789 8.88067 221.116 8.302C221.452 7.714 221.914 7.25667 222.502 6.93C223.09 6.60333 223.752 6.44 224.49 6.44C225.218 6.44 225.866 6.60333 226.436 6.93C227.014 7.24733 227.462 7.7 227.78 8.288C228.106 8.86667 228.27 9.53867 228.27 10.304ZM224.49 7.84C223.93 7.84 223.454 8.008 223.062 8.344C222.679 8.67067 222.446 9.10933 222.362 9.66H226.604C226.529 9.11867 226.3 8.68 225.918 8.344C225.535 8.008 225.059 7.84 224.49 7.84ZM233.003 10.794L231.701 12.026V14H229.951V3.612H231.701V9.884L235.327 6.524H237.427L234.305 9.66L237.721 14H235.593L233.003 10.794ZM59.47 20.612V31H57.79V30.034C57.5007 30.3887 57.1413 30.6547 56.712 30.832C56.292 31.0093 55.8253 31.098 55.312 31.098C54.5933 31.098 53.9447 30.9393 53.366 30.622C52.7967 30.3047 52.3487 29.8567 52.022 29.278C51.6953 28.69 51.532 28.018 51.532 27.262C51.532 26.506 51.6953 25.8387 52.022 25.26C52.3487 24.6813 52.7967 24.2333 53.366 23.916C53.9447 23.5987 54.5933 23.44 55.312 23.44C55.8067 23.44 56.2593 23.524 56.67 23.692C57.0807 23.86 57.4307 24.112 57.72 24.448V20.612H59.47ZM55.522 29.6C55.942 29.6 56.32 29.5067 56.656 29.32C56.992 29.124 57.258 28.8487 57.454 28.494C57.65 28.1393 57.748 27.7287 57.748 27.262C57.748 26.7953 57.65 26.3847 57.454 26.03C57.258 25.6753 56.992 25.4047 56.656 25.218C56.32 25.022 55.942 24.924 55.522 24.924C55.102 24.924 54.724 25.022 54.388 25.218C54.052 25.4047 53.786 25.6753 53.59 26.03C53.394 26.3847 53.296 26.7953 53.296 27.262C53.296 27.7287 53.394 28.1393 53.59 28.494C53.786 28.8487 54.052 29.124 54.388 29.32C54.724 29.5067 55.102 29.6 55.522 29.6ZM61.7593 23.524H63.5093V31H61.7593V23.524ZM62.6413 22.292C62.324 22.292 62.058 22.194 61.8433 21.998C61.6287 21.7927 61.5213 21.5407 61.5213 21.242C61.5213 20.9433 61.6287 20.696 61.8433 20.5C62.058 20.2947 62.324 20.192 62.6413 20.192C62.9587 20.192 63.2247 20.29 63.4393 20.486C63.654 20.6727 63.7613 20.9107 63.7613 21.2C63.7613 21.508 63.654 21.7693 63.4393 21.984C63.234 22.1893 62.968 22.292 62.6413 22.292ZM68.1162 31.098C67.5095 31.098 66.9169 31.0187 66.3382 30.86C65.7595 30.7013 65.2975 30.5007 64.9522 30.258L65.6242 28.928C65.9602 29.152 66.3615 29.334 66.8282 29.474C67.3042 29.6047 67.7709 29.67 68.2282 29.67C69.2735 29.67 69.7962 29.3947 69.7962 28.844C69.7962 28.5827 69.6609 28.4007 69.3902 28.298C69.1289 28.1953 68.7042 28.0973 68.1162 28.004C67.5002 27.9107 66.9962 27.8033 66.6042 27.682C66.2215 27.5607 65.8855 27.3507 65.5962 27.052C65.3162 26.744 65.1762 26.3193 65.1762 25.778C65.1762 25.0687 65.4702 24.504 66.0582 24.084C66.6555 23.6547 67.4582 23.44 68.4662 23.44C68.9795 23.44 69.4929 23.5007 70.0062 23.622C70.5195 23.734 70.9395 23.888 71.2662 24.084L70.5942 25.414C69.9595 25.0407 69.2455 24.854 68.4522 24.854C67.9389 24.854 67.5469 24.9333 67.2762 25.092C67.0149 25.2413 66.8842 25.442 66.8842 25.694C66.8842 25.974 67.0242 26.1747 67.3042 26.296C67.5935 26.408 68.0369 26.5153 68.6342 26.618C69.2315 26.7113 69.7215 26.8187 70.1042 26.94C70.4869 27.0613 70.8135 27.2667 71.0842 27.556C71.3642 27.8453 71.5042 28.256 71.5042 28.788C71.5042 29.488 71.2009 30.048 70.5942 30.468C69.9875 30.888 69.1615 31.098 68.1162 31.098ZM73.5713 31.098C73.2539 31.098 72.9833 30.9907 72.7593 30.776C72.5353 30.552 72.4233 30.272 72.4233 29.936C72.4233 29.5907 72.5306 29.3107 72.7453 29.096C72.9693 28.8813 73.2446 28.774 73.5713 28.774C73.8979 28.774 74.1686 28.8813 74.3833 29.096C74.6073 29.3107 74.7193 29.5907 74.7193 29.936C74.7193 30.272 74.6073 30.552 74.3833 30.776C74.1593 30.9907 73.8886 31.098 73.5713 31.098ZM82.4544 22.74H79.2064V21.2H87.5224V22.74H84.2744V31H82.4544V22.74ZM91.1798 23.44C92.2811 23.44 93.1211 23.706 93.6998 24.238C94.2878 24.7607 94.5818 25.554 94.5818 26.618V31H92.9298V30.09C92.7151 30.4167 92.4071 30.6687 92.0058 30.846C91.6138 31.014 91.1378 31.098 90.5778 31.098C90.0178 31.098 89.5278 31.0047 89.1078 30.818C88.6878 30.622 88.3611 30.356 88.1278 30.02C87.9038 29.6747 87.7918 29.2873 87.7918 28.858C87.7918 28.186 88.0391 27.6493 88.5338 27.248C89.0378 26.8373 89.8264 26.632 90.8998 26.632H92.8318V26.52C92.8318 25.9973 92.6731 25.596 92.3558 25.316C92.0478 25.036 91.5858 24.896 90.9698 24.896C90.5498 24.896 90.1344 24.9613 89.7238 25.092C89.3224 25.2227 88.9818 25.4047 88.7018 25.638L88.0158 24.364C88.4078 24.0653 88.8791 23.8367 89.4298 23.678C89.9804 23.5193 90.5638 23.44 91.1798 23.44ZM90.9418 29.824C91.3804 29.824 91.7678 29.726 92.1038 29.53C92.4491 29.3247 92.6918 29.0353 92.8318 28.662V27.794H91.0258C90.0178 27.794 89.5138 28.1253 89.5138 28.788C89.5138 29.1053 89.6398 29.3573 89.8918 29.544C90.1438 29.7307 90.4938 29.824 90.9418 29.824ZM99.1377 31.098C98.531 31.098 97.9384 31.0187 97.3597 30.86C96.781 30.7013 96.319 30.5007 95.9737 30.258L96.6457 28.928C96.9817 29.152 97.383 29.334 97.8497 29.474C98.3257 29.6047 98.7924 29.67 99.2497 29.67C100.295 29.67 100.818 29.3947 100.818 28.844C100.818 28.5827 100.682 28.4007 100.412 28.298C100.15 28.1953 99.7257 28.0973 99.1377 28.004C98.5217 27.9107 98.0177 27.8033 97.6257 27.682C97.243 27.5607 96.907 27.3507 96.6177 27.052C96.3377 26.744 96.1977 26.3193 96.1977 25.778C96.1977 25.0687 96.4917 24.504 97.0797 24.084C97.677 23.6547 98.4797 23.44 99.4877 23.44C100.001 23.44 100.514 23.5007 101.028 23.622C101.541 23.734 101.961 23.888 102.288 24.084L101.616 25.414C100.981 25.0407 100.267 24.854 99.4737 24.854C98.9604 24.854 98.5684 24.9333 98.2977 25.092C98.0364 25.2413 97.9057 25.442 97.9057 25.694C97.9057 25.974 98.0457 26.1747 98.3257 26.296C98.615 26.408 99.0584 26.5153 99.6557 26.618C100.253 26.7113 100.743 26.8187 101.126 26.94C101.508 27.0613 101.835 27.2667 102.106 27.556C102.386 27.8453 102.526 28.256 102.526 28.788C102.526 29.488 102.222 30.048 101.616 30.468C101.009 30.888 100.183 31.098 99.1377 31.098ZM108.275 23.44C109.217 23.44 109.973 23.7153 110.543 24.266C111.112 24.8167 111.397 25.6333 111.397 26.716V31H109.647V26.94C109.647 26.2867 109.493 25.7967 109.185 25.47C108.877 25.134 108.438 24.966 107.869 24.966C107.225 24.966 106.716 25.162 106.343 25.554C105.969 25.9367 105.783 26.492 105.783 27.22V31H104.033V20.612H105.783V24.392C106.072 24.084 106.427 23.8507 106.847 23.692C107.276 23.524 107.752 23.44 108.275 23.44ZM116.669 27.794L115.367 29.026V31H113.617V20.612H115.367V26.884L118.993 23.524H121.093L117.971 26.66L121.387 31H119.259L116.669 27.794ZM129.231 27.304C129.231 27.4253 129.221 27.598 129.203 27.822H123.337C123.439 28.3727 123.705 28.8113 124.135 29.138C124.573 29.4553 125.115 29.614 125.759 29.614C126.58 29.614 127.257 29.3433 127.789 28.802L128.727 29.88C128.391 30.2813 127.966 30.5847 127.453 30.79C126.939 30.9953 126.361 31.098 125.717 31.098C124.895 31.098 124.172 30.9347 123.547 30.608C122.921 30.2813 122.436 29.8287 122.091 29.25C121.755 28.662 121.587 27.9993 121.587 27.262C121.587 26.534 121.75 25.8807 122.077 25.302C122.413 24.714 122.875 24.2567 123.463 23.93C124.051 23.6033 124.713 23.44 125.451 23.44C126.179 23.44 126.827 23.6033 127.397 23.93C127.975 24.2473 128.423 24.7 128.741 25.288C129.067 25.8667 129.231 26.5387 129.231 27.304ZM125.451 24.84C124.891 24.84 124.415 25.008 124.023 25.344C123.64 25.6707 123.407 26.1093 123.323 26.66H127.565C127.49 26.1187 127.261 25.68 126.879 25.344C126.496 25.008 126.02 24.84 125.451 24.84ZM135.154 23.44C136.096 23.44 136.852 23.7153 137.422 24.266C137.991 24.8167 138.276 25.6333 138.276 26.716V31H136.526V26.94C136.526 26.2867 136.372 25.7967 136.064 25.47C135.756 25.134 135.317 24.966 134.748 24.966C134.104 24.966 133.595 25.162 133.222 25.554C132.848 25.9367 132.662 26.492 132.662 27.22V31H130.912V23.524H132.578V24.49C132.867 24.1447 133.231 23.8833 133.67 23.706C134.108 23.5287 134.603 23.44 135.154 23.44ZM144.99 30.594C144.784 30.762 144.532 30.888 144.234 30.972C143.944 31.056 143.636 31.098 143.31 31.098C142.488 31.098 141.854 30.8833 141.406 30.454C140.958 30.0247 140.734 29.3993 140.734 28.578V24.98H139.502V23.58H140.734V21.872H142.484V23.58H144.486V24.98H142.484V28.536C142.484 28.9 142.572 29.18 142.75 29.376C142.927 29.5627 143.184 29.656 143.52 29.656C143.912 29.656 144.238 29.5533 144.5 29.348L144.99 30.594ZM154.68 31.14C153.327 31.14 152.272 30.762 151.516 30.006C150.76 29.2407 150.382 28.1487 150.382 26.73V21.2H152.202V26.66C152.202 28.5827 153.033 29.544 154.694 29.544C156.346 29.544 157.172 28.5827 157.172 26.66V21.2H158.964V26.73C158.964 28.1487 158.586 29.2407 157.83 30.006C157.084 30.762 156.034 31.14 154.68 31.14ZM167.183 29.6V31H160.729V29.894L164.831 24.924H160.813V23.524H167.071V24.63L162.955 29.6H167.183ZM172.94 23.44C173.668 23.44 174.317 23.5987 174.886 23.916C175.465 24.2333 175.918 24.6813 176.244 25.26C176.571 25.8387 176.734 26.506 176.734 27.262C176.734 28.018 176.571 28.69 176.244 29.278C175.918 29.8567 175.465 30.3047 174.886 30.622C174.317 30.9393 173.668 31.098 172.94 31.098C172.427 31.098 171.956 31.0093 171.526 30.832C171.106 30.6547 170.752 30.3887 170.462 30.034V31H168.796V20.612H170.546V24.434C170.845 24.1073 171.195 23.86 171.596 23.692C172.007 23.524 172.455 23.44 172.94 23.44ZM172.744 29.6C173.388 29.6 173.916 29.3853 174.326 28.956C174.746 28.5267 174.956 27.962 174.956 27.262C174.956 26.562 174.746 25.9973 174.326 25.568C173.916 25.1387 173.388 24.924 172.744 24.924C172.324 24.924 171.946 25.022 171.61 25.218C171.274 25.4047 171.008 25.6753 170.812 26.03C170.616 26.3847 170.518 26.7953 170.518 27.262C170.518 27.7287 170.616 28.1393 170.812 28.494C171.008 28.8487 171.274 29.124 171.61 29.32C171.946 29.5067 172.324 29.6 172.744 29.6ZM185.422 27.304C185.422 27.4253 185.413 27.598 185.394 27.822H179.528C179.631 28.3727 179.897 28.8113 180.326 29.138C180.765 29.4553 181.306 29.614 181.95 29.614C182.771 29.614 183.448 29.3433 183.98 28.802L184.918 29.88C184.582 30.2813 184.157 30.5847 183.644 30.79C183.131 30.9953 182.552 31.098 181.908 31.098C181.087 31.098 180.363 30.9347 179.738 30.608C179.113 30.2813 178.627 29.8287 178.282 29.25C177.946 28.662 177.778 27.9993 177.778 27.262C177.778 26.534 177.941 25.8807 178.268 25.302C178.604 24.714 179.066 24.2567 179.654 23.93C180.242 23.6033 180.905 23.44 181.642 23.44C182.37 23.44 183.019 23.6033 183.588 23.93C184.167 24.2473 184.615 24.7 184.932 25.288C185.259 25.8667 185.422 26.5387 185.422 27.304ZM181.642 24.84C181.082 24.84 180.606 25.008 180.214 25.344C179.831 25.6707 179.598 26.1093 179.514 26.66H183.756C183.681 26.1187 183.453 25.68 183.07 25.344C182.687 25.008 182.211 24.84 181.642 24.84ZM190.155 27.794L188.853 29.026V31H187.103V20.612H188.853V26.884L192.479 23.524H194.579L191.457 26.66L194.873 31H192.745L190.155 27.794ZM195.935 23.524H197.685V31H195.935V23.524ZM196.817 22.292C196.5 22.292 196.234 22.194 196.019 21.998C195.804 21.7927 195.697 21.5407 195.697 21.242C195.697 20.9433 195.804 20.696 196.019 20.5C196.234 20.2947 196.5 20.192 196.817 20.192C197.134 20.192 197.4 20.29 197.615 20.486C197.83 20.6727 197.937 20.9107 197.937 21.2C197.937 21.508 197.83 21.7693 197.615 21.984C197.41 22.1893 197.144 22.292 196.817 22.292ZM202.292 31.098C201.685 31.098 201.093 31.0187 200.514 30.86C199.935 30.7013 199.473 30.5007 199.128 30.258L199.8 28.928C200.136 29.152 200.537 29.334 201.004 29.474C201.48 29.6047 201.947 29.67 202.404 29.67C203.449 29.67 203.972 29.3947 203.972 28.844C203.972 28.5827 203.837 28.4007 203.566 28.298C203.305 28.1953 202.88 28.0973 202.292 28.004C201.676 27.9107 201.172 27.8033 200.78 27.682C200.397 27.5607 200.061 27.3507 199.772 27.052C199.492 26.744 199.352 26.3193 199.352 25.778C199.352 25.0687 199.646 24.504 200.234 24.084C200.831 23.6547 201.634 23.44 202.642 23.44C203.155 23.44 203.669 23.5007 204.182 23.622C204.695 23.734 205.115 23.888 205.442 24.084L204.77 25.414C204.135 25.0407 203.421 24.854 202.628 24.854C202.115 24.854 201.723 24.9333 201.452 25.092C201.191 25.2413 201.06 25.442 201.06 25.694C201.06 25.974 201.2 26.1747 201.48 26.296C201.769 26.408 202.213 26.5153 202.81 26.618C203.407 26.7113 203.897 26.8187 204.28 26.94C204.663 27.0613 204.989 27.2667 205.26 27.556C205.54 27.8453 205.68 28.256 205.68 28.788C205.68 29.488 205.377 30.048 204.77 30.468C204.163 30.888 203.337 31.098 202.292 31.098ZM211.681 30.594C211.476 30.762 211.224 30.888 210.925 30.972C210.636 31.056 210.328 31.098 210.001 31.098C209.18 31.098 208.545 30.8833 208.097 30.454C207.649 30.0247 207.425 29.3993 207.425 28.578V24.98H206.193V23.58H207.425V21.872H209.175V23.58H211.177V24.98H209.175V28.536C209.175 28.9 209.264 29.18 209.441 29.376C209.618 29.5627 209.875 29.656 210.211 29.656C210.603 29.656 210.93 29.5533 211.191 29.348L211.681 30.594ZM215.977 23.44C217.078 23.44 217.918 23.706 218.497 24.238C219.085 24.7607 219.379 25.554 219.379 26.618V31H217.727V30.09C217.512 30.4167 217.204 30.6687 216.803 30.846C216.411 31.014 215.935 31.098 215.375 31.098C214.815 31.098 214.325 31.0047 213.905 30.818C213.485 30.622 213.158 30.356 212.925 30.02C212.701 29.6747 212.589 29.2873 212.589 28.858C212.589 28.186 212.836 27.6493 213.331 27.248C213.835 26.8373 214.623 26.632 215.697 26.632H217.629V26.52C217.629 25.9973 217.47 25.596 217.153 25.316C216.845 25.036 216.383 24.896 215.767 24.896C215.347 24.896 214.931 24.9613 214.521 25.092C214.119 25.2227 213.779 25.4047 213.499 25.638L212.813 24.364C213.205 24.0653 213.676 23.8367 214.227 23.678C214.777 23.5193 215.361 23.44 215.977 23.44ZM215.739 29.824C216.177 29.824 216.565 29.726 216.901 29.53C217.246 29.3247 217.489 29.0353 217.629 28.662V27.794H215.823C214.815 27.794 214.311 28.1253 214.311 28.788C214.311 29.1053 214.437 29.3573 214.689 29.544C214.941 29.7307 215.291 29.824 215.739 29.824ZM225.867 23.44C226.809 23.44 227.565 23.7153 228.135 24.266C228.704 24.8167 228.989 25.6333 228.989 26.716V31H227.239V26.94C227.239 26.2867 227.085 25.7967 226.777 25.47C226.469 25.134 226.03 24.966 225.461 24.966C224.817 24.966 224.308 25.162 223.935 25.554C223.561 25.9367 223.375 26.492 223.375 27.22V31H221.625V23.524H223.291V24.49C223.58 24.1447 223.944 23.8833 224.383 23.706C224.821 23.5287 225.316 23.44 225.867 23.44Z" fill="white"/>
<path d="M57.7488 73.8H55.2708V76.25H53.7728V73.8H51.2948V72.4H53.7728V69.95H55.2708V72.4H57.7488V73.8ZM62.5626 68.06C63.9066 68.06 64.9472 68.48 65.6846 69.32C66.4312 70.16 66.8046 71.364 66.8046 72.932C66.8046 74.0333 66.6039 74.976 66.2026 75.76C65.8012 76.5347 65.2366 77.1273 64.5086 77.538C63.7899 77.9393 62.9546 78.14 62.0026 78.14C61.4986 78.14 61.0226 78.0887 60.5746 77.986C60.1359 77.874 59.7532 77.7153 59.4266 77.51L60.0986 76.138C60.5839 76.4553 61.2046 76.614 61.9606 76.614C62.9032 76.614 63.6406 76.3247 64.1726 75.746C64.7046 75.1673 64.9706 74.332 64.9706 73.24V73.226C64.6812 73.562 64.3126 73.8187 63.8646 73.996C63.4166 74.164 62.9126 74.248 62.3526 74.248C61.7086 74.248 61.1299 74.1267 60.6166 73.884C60.1032 73.632 59.7019 73.2773 59.4126 72.82C59.1232 72.3627 58.9786 71.8353 58.9786 71.238C58.9786 70.6033 59.1372 70.048 59.4546 69.572C59.7719 69.0867 60.2012 68.7133 60.7426 68.452C61.2839 68.1907 61.8906 68.06 62.5626 68.06ZM62.7026 72.82C63.2906 72.82 63.7666 72.6613 64.1306 72.344C64.5039 72.0267 64.6906 71.6253 64.6906 71.14C64.6906 70.664 64.5086 70.272 64.1446 69.964C63.7899 69.6467 63.2952 69.488 62.6606 69.488C62.0912 69.488 61.6292 69.642 61.2746 69.95C60.9199 70.2487 60.7426 70.65 60.7426 71.154C60.7426 71.6673 60.9199 72.0733 61.2746 72.372C61.6292 72.6707 62.1052 72.82 62.7026 72.82ZM71.3399 68.06C72.6839 68.06 73.7246 68.48 74.4619 69.32C75.2086 70.16 75.5819 71.364 75.5819 72.932C75.5819 74.0333 75.3813 74.976 74.9799 75.76C74.5786 76.5347 74.0139 77.1273 73.2859 77.538C72.5673 77.9393 71.7319 78.14 70.7799 78.14C70.2759 78.14 69.7999 78.0887 69.3519 77.986C68.9133 77.874 68.5306 77.7153 68.2039 77.51L68.8759 76.138C69.3613 76.4553 69.9819 76.614 70.7379 76.614C71.6806 76.614 72.4179 76.3247 72.9499 75.746C73.4819 75.1673 73.7479 74.332 73.7479 73.24V73.226C73.4586 73.562 73.0899 73.8187 72.6419 73.996C72.1939 74.164 71.6899 74.248 71.1299 74.248C70.4859 74.248 69.9073 74.1267 69.3939 73.884C68.8806 73.632 68.4793 73.2773 68.1899 72.82C67.9006 72.3627 67.7559 71.8353 67.7559 71.238C67.7559 70.6033 67.9146 70.048 68.2319 69.572C68.5493 69.0867 68.9786 68.7133 69.5199 68.452C70.0613 68.1907 70.6679 68.06 71.3399 68.06ZM71.4799 72.82C72.0679 72.82 72.5439 72.6613 72.9079 72.344C73.2813 72.0267 73.4679 71.6253 73.4679 71.14C73.4679 70.664 73.2859 70.272 72.9219 69.964C72.5673 69.6467 72.0726 69.488 71.4379 69.488C70.8686 69.488 70.4066 69.642 70.0519 69.95C69.6973 70.2487 69.5199 70.65 69.5199 71.154C69.5199 71.6673 69.6973 72.0733 70.0519 72.372C70.4066 72.6707 70.8826 72.82 71.4799 72.82ZM83.1693 72.848C83.6826 73.0813 84.0746 73.3987 84.3453 73.8C84.6253 74.192 84.7653 74.654 84.7653 75.186C84.7653 75.7833 84.5973 76.306 84.2613 76.754C83.9346 77.202 83.4679 77.5473 82.8613 77.79C82.2546 78.0233 81.5499 78.14 80.7473 78.14C79.9446 78.14 79.2399 78.0233 78.6333 77.79C78.0359 77.5473 77.5739 77.202 77.2473 76.754C76.9206 76.306 76.7573 75.7833 76.7573 75.186C76.7573 74.654 76.8926 74.192 77.1633 73.8C77.4339 73.3987 77.8213 73.0813 78.3253 72.848C77.9333 72.6333 77.6299 72.3533 77.4153 72.008C77.2099 71.6533 77.1073 71.2473 77.1073 70.79C77.1073 70.2393 77.2566 69.7587 77.5553 69.348C77.8633 68.9373 78.2926 68.62 78.8433 68.396C79.3939 68.172 80.0286 68.06 80.7473 68.06C81.4753 68.06 82.1146 68.172 82.6653 68.396C83.2159 68.62 83.6453 68.9373 83.9533 69.348C84.2613 69.7587 84.4153 70.2393 84.4153 70.79C84.4153 71.2473 84.3079 71.6487 84.0933 71.994C83.8786 72.3393 83.5706 72.624 83.1693 72.848ZM80.7473 69.488C80.1779 69.488 79.7253 69.6093 79.3893 69.852C79.0626 70.0947 78.8993 70.4353 78.8993 70.874C78.8993 71.294 79.0626 71.63 79.3893 71.882C79.7253 72.1247 80.1779 72.246 80.7473 72.246C81.3259 72.246 81.7833 72.1247 82.1193 71.882C82.4553 71.63 82.6233 71.294 82.6233 70.874C82.6233 70.4353 82.4506 70.0947 82.1053 69.852C81.7693 69.6093 81.3166 69.488 80.7473 69.488ZM80.7473 76.712C81.4193 76.712 81.9513 76.572 82.3433 76.292C82.7353 76.012 82.9313 75.6247 82.9313 75.13C82.9313 74.6447 82.7353 74.262 82.3433 73.982C81.9513 73.702 81.4193 73.562 80.7473 73.562C80.0753 73.562 79.5479 73.702 79.1653 73.982C78.7826 74.262 78.5913 74.6447 78.5913 75.13C78.5913 75.6247 78.7826 76.012 79.1653 76.292C79.5479 76.572 80.0753 76.712 80.7473 76.712ZM93.3381 68.2V69.418L89.5301 78H87.5841L91.2661 69.74H87.4161V71.406H85.7221V68.2H93.3381ZM97.9884 68.2V78H96.1684V69.726H94.0964V68.2H97.9884ZM110.9 76.46V78H103.676V76.782L107.568 73.086C108.006 72.666 108.3 72.302 108.45 71.994C108.608 71.6767 108.688 71.364 108.688 71.056C108.688 70.5987 108.534 70.2487 108.226 70.006C107.918 69.7633 107.465 69.642 106.868 69.642C105.869 69.642 105.104 69.9827 104.572 70.664L103.298 69.684C103.68 69.1707 104.194 68.774 104.838 68.494C105.491 68.2047 106.219 68.06 107.022 68.06C108.086 68.06 108.935 68.312 109.57 68.816C110.204 69.32 110.522 70.006 110.522 70.874C110.522 71.406 110.41 71.9053 110.186 72.372C109.962 72.8387 109.532 73.3707 108.898 73.968L106.28 76.46H110.9ZM116.361 71.952C117.005 71.952 117.584 72.078 118.097 72.33C118.61 72.5727 119.012 72.9227 119.301 73.38C119.59 73.8373 119.735 74.3647 119.735 74.962C119.735 75.5967 119.576 76.1567 119.259 76.642C118.942 77.118 118.512 77.4867 117.971 77.748C117.43 78.0093 116.823 78.14 116.151 78.14C114.807 78.14 113.762 77.72 113.015 76.88C112.278 76.04 111.909 74.836 111.909 73.268C111.909 72.1667 112.11 71.2287 112.511 70.454C112.912 69.67 113.472 69.0773 114.191 68.676C114.919 68.2653 115.759 68.06 116.711 68.06C117.215 68.06 117.686 68.116 118.125 68.228C118.573 68.3307 118.96 68.4847 119.287 68.69L118.615 70.062C118.13 69.7447 117.509 69.586 116.753 69.586C115.81 69.586 115.073 69.8753 114.541 70.454C114.009 71.0327 113.743 71.868 113.743 72.96V72.974C114.032 72.638 114.401 72.386 114.849 72.218C115.297 72.0407 115.801 71.952 116.361 71.952ZM116.053 76.712C116.622 76.712 117.084 76.5627 117.439 76.264C117.794 75.956 117.971 75.55 117.971 75.046C117.971 74.5327 117.794 74.1267 117.439 73.828C117.084 73.5293 116.608 73.38 116.011 73.38C115.423 73.38 114.942 73.5387 114.569 73.856C114.205 74.1733 114.023 74.5747 114.023 75.06C114.023 75.536 114.2 75.9327 114.555 76.25C114.919 76.558 115.418 76.712 116.053 76.712ZM127.042 72.848C127.556 73.0813 127.948 73.3987 128.218 73.8C128.498 74.192 128.638 74.654 128.638 75.186C128.638 75.7833 128.47 76.306 128.134 76.754C127.808 77.202 127.341 77.5473 126.734 77.79C126.128 78.0233 125.423 78.14 124.62 78.14C123.818 78.14 123.113 78.0233 122.506 77.79C121.909 77.5473 121.447 77.202 121.12 76.754C120.794 76.306 120.63 75.7833 120.63 75.186C120.63 74.654 120.766 74.192 121.036 73.8C121.307 73.3987 121.694 73.0813 122.198 72.848C121.806 72.6333 121.503 72.3533 121.288 72.008C121.083 71.6533 120.98 71.2473 120.98 70.79C120.98 70.2393 121.13 69.7587 121.428 69.348C121.736 68.9373 122.166 68.62 122.716 68.396C123.267 68.172 123.902 68.06 124.62 68.06C125.348 68.06 125.988 68.172 126.538 68.396C127.089 68.62 127.518 68.9373 127.826 69.348C128.134 69.7587 128.288 70.2393 128.288 70.79C128.288 71.2473 128.181 71.6487 127.966 71.994C127.752 72.3393 127.444 72.624 127.042 72.848ZM124.62 69.488C124.051 69.488 123.598 69.6093 123.262 69.852C122.936 70.0947 122.772 70.4353 122.772 70.874C122.772 71.294 122.936 71.63 123.262 71.882C123.598 72.1247 124.051 72.246 124.62 72.246C125.199 72.246 125.656 72.1247 125.992 71.882C126.328 71.63 126.496 71.294 126.496 70.874C126.496 70.4353 126.324 70.0947 125.978 69.852C125.642 69.6093 125.19 69.488 124.62 69.488ZM124.62 76.712C125.292 76.712 125.824 76.572 126.216 76.292C126.608 76.012 126.804 75.6247 126.804 75.13C126.804 74.6447 126.608 74.262 126.216 73.982C125.824 73.702 125.292 73.562 124.62 73.562C123.948 73.562 123.421 73.702 123.038 73.982C122.656 74.262 122.464 74.6447 122.464 75.13C122.464 75.6247 122.656 76.012 123.038 76.292C123.421 76.572 123.948 76.712 124.62 76.712ZM129.973 73.38H133.823V74.836H129.973V73.38ZM144.01 75.774H142.274V78H140.51V75.774H135.134V74.514L139.964 68.2H141.91L137.36 74.234H140.566V72.26H142.274V74.234H144.01V75.774ZM147.809 68.2V78H145.989V69.726H143.917V68.2H147.809ZM149.907 73.38H153.757V74.836H149.907V73.38ZM162.032 76.46V78H154.808V76.782L158.7 73.086C159.139 72.666 159.433 72.302 159.582 71.994C159.741 71.6767 159.82 71.364 159.82 71.056C159.82 70.5987 159.666 70.2487 159.358 70.006C159.05 69.7633 158.598 69.642 158 69.642C157.002 69.642 156.236 69.9827 155.704 70.664L154.43 69.684C154.813 69.1707 155.326 68.774 155.97 68.494C156.624 68.2047 157.352 68.06 158.154 68.06C159.218 68.06 160.068 68.312 160.702 68.816C161.337 69.32 161.654 70.006 161.654 70.874C161.654 71.406 161.542 71.9053 161.318 72.372C161.094 72.8387 160.665 73.3707 160.03 73.968L157.412 76.46H162.032ZM167.255 72.246C168.16 72.358 168.851 72.666 169.327 73.17C169.803 73.674 170.041 74.304 170.041 75.06C170.041 75.6293 169.896 76.1473 169.607 76.614C169.317 77.0807 168.879 77.454 168.291 77.734C167.712 78.0047 167.003 78.14 166.163 78.14C165.463 78.14 164.786 78.042 164.133 77.846C163.489 77.6407 162.938 77.3607 162.481 77.006L163.265 75.592C163.619 75.8907 164.049 76.1287 164.553 76.306C165.066 76.474 165.593 76.558 166.135 76.558C166.779 76.558 167.283 76.4273 167.647 76.166C168.02 75.8953 168.207 75.5313 168.207 75.074C168.207 74.6167 168.029 74.262 167.675 74.01C167.329 73.7487 166.797 73.618 166.079 73.618H165.183V72.372L167.409 69.726H162.957V68.2H169.635V69.418L167.255 72.246Z" fill="white"/>
<path d="M58.559 116.928C57.8217 116.928 57.453 117.329 57.453 118.132V118.58H59.511V119.98H57.509V126H55.759V119.98H54.527V118.58H55.759V118.104C55.759 117.301 55.9924 116.671 56.459 116.214C56.9257 115.747 57.5837 115.514 58.433 115.514C59.105 115.514 59.6324 115.649 60.015 115.92L59.525 117.236C59.2264 117.031 58.9044 116.928 58.559 116.928ZM63.4083 118.44C64.5096 118.44 65.3496 118.706 65.9283 119.238C66.5163 119.761 66.8103 120.554 66.8103 121.618V126H65.1583V125.09C64.9436 125.417 64.6356 125.669 64.2343 125.846C63.8423 126.014 63.3663 126.098 62.8063 126.098C62.2463 126.098 61.7563 126.005 61.3363 125.818C60.9163 125.622 60.5896 125.356 60.3563 125.02C60.1323 124.675 60.0203 124.287 60.0203 123.858C60.0203 123.186 60.2676 122.649 60.7623 122.248C61.2663 121.837 62.055 121.632 63.1283 121.632H65.0603V121.52C65.0603 120.997 64.9016 120.596 64.5843 120.316C64.2763 120.036 63.8143 119.896 63.1983 119.896C62.7783 119.896 62.363 119.961 61.9523 120.092C61.551 120.223 61.2103 120.405 60.9303 120.638L60.2443 119.364C60.6363 119.065 61.1076 118.837 61.6583 118.678C62.209 118.519 62.7923 118.44 63.4083 118.44ZM63.1703 124.824C63.609 124.824 63.9963 124.726 64.3323 124.53C64.6776 124.325 64.9203 124.035 65.0603 123.662V122.794H63.2543C62.2463 122.794 61.7423 123.125 61.7423 123.788C61.7423 124.105 61.8683 124.357 62.1203 124.544C62.3723 124.731 62.7223 124.824 63.1703 124.824ZM73.2982 118.44C74.2409 118.44 74.9969 118.715 75.5662 119.266C76.1355 119.817 76.4202 120.633 76.4202 121.716V126H74.6702V121.94C74.6702 121.287 74.5162 120.797 74.2082 120.47C73.9002 120.134 73.4615 119.966 72.8922 119.966C72.2482 119.966 71.7395 120.162 71.3662 120.554C70.9929 120.937 70.8062 121.492 70.8062 122.22V126H69.0562V118.524H70.7222V119.49C71.0115 119.145 71.3755 118.883 71.8142 118.706C72.2529 118.529 72.7475 118.44 73.2982 118.44ZM83.1342 125.594C82.9289 125.762 82.6769 125.888 82.3782 125.972C82.0889 126.056 81.7809 126.098 81.4542 126.098C80.6329 126.098 79.9982 125.883 79.5502 125.454C79.1022 125.025 78.8782 124.399 78.8782 123.578V119.98H77.6462V118.58H78.8782V116.872H80.6282V118.58H82.6302V119.98H80.6282V123.536C80.6282 123.9 80.7169 124.18 80.8942 124.376C81.0715 124.563 81.3282 124.656 81.6642 124.656C82.0562 124.656 82.3829 124.553 82.6442 124.348L83.1342 125.594ZM87.4298 118.44C88.5311 118.44 89.3711 118.706 89.9498 119.238C90.5378 119.761 90.8318 120.554 90.8318 121.618V126H89.1798V125.09C88.9651 125.417 88.6571 125.669 88.2558 125.846C87.8638 126.014 87.3878 126.098 86.8278 126.098C86.2678 126.098 85.7778 126.005 85.3578 125.818C84.9378 125.622 84.6111 125.356 84.3778 125.02C84.1538 124.675 84.0418 124.287 84.0418 123.858C84.0418 123.186 84.2891 122.649 84.7838 122.248C85.2878 121.837 86.0764 121.632 87.1498 121.632H89.0818V121.52C89.0818 120.997 88.9231 120.596 88.6058 120.316C88.2978 120.036 87.8358 119.896 87.2198 119.896C86.7998 119.896 86.3844 119.961 85.9738 120.092C85.5724 120.223 85.2318 120.405 84.9518 120.638L84.2658 119.364C84.6578 119.065 85.1291 118.837 85.6798 118.678C86.2304 118.519 86.8138 118.44 87.4298 118.44ZM87.1918 124.824C87.6304 124.824 88.0178 124.726 88.3538 124.53C88.6991 124.325 88.9418 124.035 89.0818 123.662V122.794H87.2758C86.2678 122.794 85.7638 123.125 85.7638 123.788C85.7638 124.105 85.8898 124.357 86.1418 124.544C86.3938 124.731 86.7438 124.824 87.1918 124.824ZM95.3877 126.098C94.781 126.098 94.1884 126.019 93.6097 125.86C93.031 125.701 92.569 125.501 92.2237 125.258L92.8957 123.928C93.2317 124.152 93.633 124.334 94.0997 124.474C94.5757 124.605 95.0424 124.67 95.4997 124.67C96.545 124.67 97.0677 124.395 97.0677 123.844C97.0677 123.583 96.9324 123.401 96.6617 123.298C96.4004 123.195 95.9757 123.097 95.3877 123.004C94.7717 122.911 94.2677 122.803 93.8757 122.682C93.493 122.561 93.157 122.351 92.8677 122.052C92.5877 121.744 92.4477 121.319 92.4477 120.778C92.4477 120.069 92.7417 119.504 93.3297 119.084C93.927 118.655 94.7297 118.44 95.7377 118.44C96.251 118.44 96.7644 118.501 97.2777 118.622C97.791 118.734 98.211 118.888 98.5377 119.084L97.8657 120.414C97.231 120.041 96.517 119.854 95.7237 119.854C95.2104 119.854 94.8184 119.933 94.5477 120.092C94.2864 120.241 94.1557 120.442 94.1557 120.694C94.1557 120.974 94.2957 121.175 94.5757 121.296C94.865 121.408 95.3084 121.515 95.9057 121.618C96.503 121.711 96.993 121.819 97.3757 121.94C97.7584 122.061 98.085 122.267 98.3557 122.556C98.6357 122.845 98.7757 123.256 98.7757 123.788C98.7757 124.488 98.4724 125.048 97.8657 125.468C97.259 125.888 96.433 126.098 95.3877 126.098ZM107.146 118.524L103.646 126.602C103.319 127.414 102.923 127.983 102.456 128.31C101.989 128.646 101.425 128.814 100.762 128.814C100.389 128.814 100.02 128.753 99.656 128.632C99.292 128.511 98.9934 128.343 98.76 128.128L99.46 126.84C99.628 126.999 99.824 127.125 100.048 127.218C100.281 127.311 100.515 127.358 100.748 127.358C101.056 127.358 101.308 127.279 101.504 127.12C101.709 126.961 101.896 126.695 102.064 126.322L102.19 126.028L98.928 118.524H100.748L103.1 124.054L105.466 118.524H107.146ZM114.331 116.074C115.601 116.074 116.735 116.335 117.733 116.858C118.732 117.381 119.507 118.109 120.057 119.042C120.617 119.975 120.897 121.03 120.897 122.206C120.897 123.419 120.659 124.371 120.183 125.062C119.707 125.743 119.049 126.084 118.209 126.084C117.761 126.084 117.383 125.981 117.075 125.776C116.767 125.561 116.553 125.258 116.431 124.866C115.871 125.678 115.031 126.084 113.911 126.084C113.277 126.084 112.703 125.935 112.189 125.636C111.676 125.328 111.275 124.903 110.985 124.362C110.696 123.821 110.551 123.205 110.551 122.514C110.551 121.833 110.696 121.226 110.985 120.694C111.275 120.153 111.676 119.733 112.189 119.434C112.703 119.126 113.277 118.972 113.911 118.972C114.406 118.972 114.849 119.056 115.241 119.224C115.643 119.392 115.979 119.639 116.249 119.966V119.056H117.803V123.816C117.803 124.152 117.869 124.395 117.999 124.544C118.139 124.693 118.317 124.768 118.531 124.768C118.914 124.768 119.203 124.553 119.399 124.124C119.605 123.685 119.707 123.055 119.707 122.234C119.707 121.245 119.479 120.372 119.021 119.616C118.573 118.86 117.943 118.272 117.131 117.852C116.319 117.432 115.386 117.222 114.331 117.222C113.267 117.222 112.325 117.446 111.503 117.894C110.682 118.333 110.047 118.949 109.599 119.742C109.151 120.535 108.927 121.436 108.927 122.444C108.927 123.471 109.147 124.381 109.585 125.174C110.033 125.967 110.663 126.583 111.475 127.022C112.287 127.47 113.221 127.694 114.275 127.694C114.733 127.694 115.195 127.643 115.661 127.54C116.137 127.437 116.581 127.283 116.991 127.078L117.369 128.198C116.959 128.413 116.473 128.576 115.913 128.688C115.363 128.8 114.817 128.856 114.275 128.856C112.969 128.856 111.811 128.581 110.803 128.03C109.805 127.479 109.025 126.719 108.465 125.748C107.915 124.777 107.639 123.676 107.639 122.444C107.639 121.231 107.919 120.143 108.479 119.182C109.039 118.211 109.823 117.451 110.831 116.9C111.849 116.349 113.015 116.074 114.331 116.074ZM114.205 124.726C114.812 124.726 115.307 124.53 115.689 124.138C116.081 123.737 116.277 123.195 116.277 122.514C116.277 121.842 116.081 121.31 115.689 120.918C115.307 120.526 114.812 120.33 114.205 120.33C113.589 120.33 113.09 120.531 112.707 120.932C112.325 121.324 112.133 121.851 112.133 122.514C112.133 123.186 112.325 123.723 112.707 124.124C113.09 124.525 113.589 124.726 114.205 124.726ZM130.07 118.524V124.866C130.07 127.498 128.726 128.814 126.038 128.814C125.319 128.814 124.638 128.721 123.994 128.534C123.35 128.357 122.818 128.095 122.398 127.75L123.182 126.434C123.509 126.705 123.919 126.919 124.414 127.078C124.918 127.246 125.427 127.33 125.94 127.33C126.761 127.33 127.363 127.143 127.746 126.77C128.129 126.397 128.32 125.827 128.32 125.062V124.67C128.021 124.997 127.657 125.244 127.228 125.412C126.799 125.58 126.327 125.664 125.814 125.664C125.105 125.664 124.461 125.515 123.882 125.216C123.313 124.908 122.86 124.479 122.524 123.928C122.197 123.377 122.034 122.747 122.034 122.038C122.034 121.329 122.197 120.703 122.524 120.162C122.86 119.611 123.313 119.187 123.882 118.888C124.461 118.589 125.105 118.44 125.814 118.44C126.355 118.44 126.845 118.529 127.284 118.706C127.732 118.883 128.105 119.154 128.404 119.518V118.524H130.07ZM126.08 124.18C126.743 124.18 127.284 123.984 127.704 123.592C128.133 123.191 128.348 122.673 128.348 122.038C128.348 121.413 128.133 120.904 127.704 120.512C127.284 120.12 126.743 119.924 126.08 119.924C125.408 119.924 124.857 120.12 124.428 120.512C124.008 120.904 123.798 121.413 123.798 122.038C123.798 122.673 124.008 123.191 124.428 123.592C124.857 123.984 125.408 124.18 126.08 124.18ZM141.807 118.44C142.749 118.44 143.496 118.715 144.047 119.266C144.597 119.807 144.873 120.624 144.873 121.716V126H143.123V121.94C143.123 121.287 142.978 120.797 142.689 120.47C142.399 120.134 141.984 119.966 141.443 119.966C140.855 119.966 140.383 120.162 140.029 120.554C139.674 120.937 139.497 121.487 139.497 122.206V126H137.747V121.94C137.747 121.287 137.602 120.797 137.313 120.47C137.023 120.134 136.608 119.966 136.067 119.966C135.469 119.966 134.993 120.157 134.639 120.54C134.293 120.923 134.121 121.478 134.121 122.206V126H132.371V118.524H134.037V119.476C134.317 119.14 134.667 118.883 135.087 118.706C135.507 118.529 135.973 118.44 136.487 118.44C137.047 118.44 137.541 118.547 137.971 118.762C138.409 118.967 138.755 119.275 139.007 119.686C139.315 119.294 139.711 118.991 140.197 118.776C140.682 118.552 141.219 118.44 141.807 118.44ZM149.965 118.44C151.066 118.44 151.906 118.706 152.485 119.238C153.073 119.761 153.367 120.554 153.367 121.618V126H151.715V125.09C151.5 125.417 151.192 125.669 150.791 125.846C150.399 126.014 149.923 126.098 149.363 126.098C148.803 126.098 148.313 126.005 147.893 125.818C147.473 125.622 147.146 125.356 146.913 125.02C146.689 124.675 146.577 124.287 146.577 123.858C146.577 123.186 146.824 122.649 147.319 122.248C147.823 121.837 148.612 121.632 149.685 121.632H151.617V121.52C151.617 120.997 151.458 120.596 151.141 120.316C150.833 120.036 150.371 119.896 149.755 119.896C149.335 119.896 148.92 119.961 148.509 120.092C148.108 120.223 147.767 120.405 147.487 120.638L146.801 119.364C147.193 119.065 147.664 118.837 148.215 118.678C148.766 118.519 149.349 118.44 149.965 118.44ZM149.727 124.824C150.166 124.824 150.553 124.726 150.889 124.53C151.234 124.325 151.477 124.035 151.617 123.662V122.794H149.811C148.803 122.794 148.299 123.125 148.299 123.788C148.299 124.105 148.425 124.357 148.677 124.544C148.929 124.731 149.279 124.824 149.727 124.824ZM155.613 118.524H157.363V126H155.613V118.524ZM156.495 117.292C156.178 117.292 155.912 117.194 155.697 116.998C155.482 116.793 155.375 116.541 155.375 116.242C155.375 115.943 155.482 115.696 155.697 115.5C155.912 115.295 156.178 115.192 156.495 115.192C156.812 115.192 157.078 115.29 157.293 115.486C157.508 115.673 157.615 115.911 157.615 116.2C157.615 116.508 157.508 116.769 157.293 116.984C157.088 117.189 156.822 117.292 156.495 117.292ZM159.66 115.612H161.41V126H159.66V115.612ZM164.267 126.098C163.949 126.098 163.679 125.991 163.455 125.776C163.231 125.552 163.119 125.272 163.119 124.936C163.119 124.591 163.226 124.311 163.441 124.096C163.665 123.881 163.94 123.774 164.267 123.774C164.593 123.774 164.864 123.881 165.079 124.096C165.303 124.311 165.415 124.591 165.415 124.936C165.415 125.272 165.303 125.552 165.079 125.776C164.855 125.991 164.584 126.098 164.267 126.098ZM170.418 126.098C169.643 126.098 168.948 125.935 168.332 125.608C167.716 125.281 167.235 124.829 166.89 124.25C166.545 123.662 166.372 122.999 166.372 122.262C166.372 121.525 166.545 120.867 166.89 120.288C167.235 119.709 167.711 119.257 168.318 118.93C168.934 118.603 169.634 118.44 170.418 118.44C171.155 118.44 171.799 118.589 172.35 118.888C172.91 119.187 173.33 119.616 173.61 120.176L172.266 120.96C172.051 120.615 171.781 120.358 171.454 120.19C171.137 120.013 170.787 119.924 170.404 119.924C169.751 119.924 169.209 120.139 168.78 120.568C168.351 120.988 168.136 121.553 168.136 122.262C168.136 122.971 168.346 123.541 168.766 123.97C169.195 124.39 169.741 124.6 170.404 124.6C170.787 124.6 171.137 124.516 171.454 124.348C171.781 124.171 172.051 123.909 172.266 123.564L173.61 124.348C173.321 124.908 172.896 125.342 172.336 125.65C171.785 125.949 171.146 126.098 170.418 126.098ZM178.373 126.098C177.617 126.098 176.936 125.935 176.329 125.608C175.723 125.281 175.247 124.829 174.901 124.25C174.565 123.662 174.397 122.999 174.397 122.262C174.397 121.525 174.565 120.867 174.901 120.288C175.247 119.709 175.723 119.257 176.329 118.93C176.936 118.603 177.617 118.44 178.373 118.44C179.139 118.44 179.825 118.603 180.431 118.93C181.038 119.257 181.509 119.709 181.845 120.288C182.191 120.867 182.363 121.525 182.363 122.262C182.363 122.999 182.191 123.662 181.845 124.25C181.509 124.829 181.038 125.281 180.431 125.608C179.825 125.935 179.139 126.098 178.373 126.098ZM178.373 124.6C179.017 124.6 179.549 124.385 179.969 123.956C180.389 123.527 180.599 122.962 180.599 122.262C180.599 121.562 180.389 120.997 179.969 120.568C179.549 120.139 179.017 119.924 178.373 119.924C177.729 119.924 177.197 120.139 176.777 120.568C176.367 120.997 176.161 121.562 176.161 122.262C176.161 122.962 176.367 123.527 176.777 123.956C177.197 124.385 177.729 124.6 178.373 124.6ZM193.473 118.44C194.415 118.44 195.162 118.715 195.713 119.266C196.263 119.807 196.539 120.624 196.539 121.716V126H194.789V121.94C194.789 121.287 194.644 120.797 194.355 120.47C194.065 120.134 193.65 119.966 193.109 119.966C192.521 119.966 192.049 120.162 191.695 120.554C191.34 120.937 191.163 121.487 191.163 122.206V126H189.413V121.94C189.413 121.287 189.268 120.797 188.979 120.47C188.689 120.134 188.274 119.966 187.733 119.966C187.135 119.966 186.659 120.157 186.305 120.54C185.959 120.923 185.787 121.478 185.787 122.206V126H184.037V118.524H185.703V119.476C185.983 119.14 186.333 118.883 186.753 118.706C187.173 118.529 187.639 118.44 188.153 118.44C188.713 118.44 189.207 118.547 189.637 118.762C190.075 118.967 190.421 119.275 190.673 119.686C190.981 119.294 191.377 118.991 191.863 118.776C192.348 118.552 192.885 118.44 193.473 118.44Z" fill="white"/>
</svg>
